<svg width="363" height="112" viewBox="0 0 363 112" fill="none" xmlns="http://www.w3.org/2000/svg">
<path d="M353.436 32.4989C348.957 22.6491 338.056 17.7663 328.422 21.1338C341.013 27.3635 349.295 39.823 349.295 54.8923C349.295 55.2291 349.295 55.5658 349.295 55.9025C355.211 50.0937 357.239 40.7491 353.436 32.4989Z" fill="#3DC681"/>
<path d="M11.099 40.9175C11.099 39.2337 10.1694 38.4761 8.64827 38.4761H4.25391V26.5217H17.268C22.2539 26.5217 24.7046 28.8789 24.7046 32.8356V34.5193C24.7046 35.6979 24.6201 36.9607 24.6201 36.9607H24.8736C27.5779 31.4045 34.3384 25.2589 43.2117 25.2589C51.7469 25.2589 57.3243 29.2156 59.775 36.8765H60.0285C62.9018 30.731 70.2539 25.1747 79.2116 25.1747C90.9581 25.1747 97.8032 31.8254 97.8032 46.6421V68.6988C97.8032 70.2141 98.6483 71.1402 100.254 71.1402H102.367V82.9262H91.2962C85.9722 82.9262 83.775 80.7374 83.775 75.4337V49.336C83.775 42.9379 82.5919 38.0551 76.0004 38.0551C68.9863 38.0551 64.0004 43.9482 62.4792 51.0198C61.8032 53.2086 61.5497 55.5658 61.5497 58.1756V82.9262H47.3525V49.2519C47.3525 43.1905 46.4229 37.971 39.6624 37.971C32.5638 37.971 27.7469 43.864 25.9722 51.0198C25.3807 53.2086 25.0426 55.5658 25.0426 58.0914V82.9262H11.099V40.9175Z" fill="white"/>
<path d="M131.521 25.1747C148.845 25.1747 162.62 37.4658 162.62 54.7239C162.62 72.0662 148.845 84.2732 131.521 84.2732C114.282 84.2732 100.507 72.0662 100.507 54.7239C100.507 37.4658 114.282 25.1747 131.521 25.1747ZM131.521 72.3188C140.733 72.3188 148.423 65.2472 148.423 54.7239C148.423 44.2849 140.733 37.1291 131.521 37.1291C122.395 37.1291 114.705 44.2849 114.705 54.7239C114.705 65.2472 122.395 72.3188 131.521 72.3188Z" fill="white"/>
<path d="M191.86 25.1747C204.198 25.1747 208.169 32.0779 208.169 32.0779H208.423C208.423 32.0779 208.338 30.6468 208.338 28.7947V18.7766C208.338 17.0928 207.409 16.3352 205.888 16.3352H204.451V4.38078H214.93C220.169 4.38078 222.451 6.73798 222.451 11.8733V68.6988C222.451 70.2141 223.381 71.1402 224.902 71.1402H227.014V82.9262H216.282C211.127 82.9262 209.268 80.4848 209.268 77.2016C209.268 76.023 209.268 75.0969 209.268 75.0969H209.014C209.014 75.0969 204.367 84.2732 191.353 84.2732C176.057 84.2732 166.169 72.2346 166.169 54.7239C166.085 36.7923 176.902 25.1747 191.86 25.1747ZM208.676 54.6398C208.676 45.8844 204.113 37.2975 194.648 37.2975C186.874 37.2975 180.451 43.6114 180.451 54.8081C180.451 65.5839 186.113 72.4872 194.479 72.4872C201.747 72.403 208.676 67.0993 208.676 54.6398Z" fill="white"/>
<path d="M238 94.3755C241.888 94.3755 245.352 92.0183 247.296 87.2197L249.155 82.9262L230.226 40.4965C229.55 38.8128 228.789 38.4761 227.183 38.4761H225.493V26.5217H234.789C238.761 26.5217 240.789 27.9528 242.226 31.8254L253.296 60.0277C254.395 62.89 255.324 65.3314 255.324 65.3314H255.578C255.578 65.3314 256.507 62.89 257.437 60.0277L267.071 31.8254C268.423 27.9528 270.705 26.5217 274.592 26.5217H284.141L260.141 91.2606C256.169 101.447 246.874 106.246 238.423 106.246C229.55 106.246 224.057 100.521 224.057 100.521L229.465 90.5871C229.803 90.503 233.268 94.3755 238 94.3755Z" fill="white"/>
<path d="M309.493 25.1747C326.817 25.1747 340.592 37.4658 340.592 54.7239C340.592 72.0662 326.817 84.2732 309.493 84.2732C292.254 84.2732 278.479 72.0662 278.479 54.7239C278.479 37.4658 292.254 25.1747 309.493 25.1747ZM309.493 72.3188C318.705 72.3188 326.395 65.2472 326.395 54.7239C326.395 44.2849 318.705 37.1291 309.493 37.1291C300.367 37.1291 292.676 44.2849 292.676 54.7239C292.676 65.2472 300.367 72.3188 309.493 72.3188Z" fill="white"/>
</svg>
