<svg width="363" height="112" viewBox="0 0 363 112" fill="none" xmlns="http://www.w3.org/2000/svg">
<path d="M353.436 32.8655C348.957 23.0158 338.056 18.133 328.422 21.5004C341.013 27.7302 349.295 40.1897 349.295 55.259C349.295 55.5957 349.295 55.9325 349.295 56.2692C355.211 50.4604 357.239 41.1157 353.436 32.8655Z" fill="#3DC681"/>
<path d="M10.8451 41.5367C10.8451 39.853 9.91549 39.0953 8.39437 39.0953H4V27.1409H17.0141C22 27.1409 24.4507 29.4981 24.4507 33.4548V35.1386C24.4507 36.3172 24.3662 37.5799 24.3662 37.5799H24.6197C27.3239 32.0237 34.0845 25.8781 42.9577 25.8781C51.493 25.8781 57.0704 29.8348 59.5211 37.4958H59.7746C62.6479 31.3502 70 25.7939 78.9577 25.7939C90.7042 25.7939 97.5493 32.4446 97.5493 47.2613V69.318C97.5493 70.8334 98.3944 71.7594 100 71.7594H102.113V83.5454H91.0422C85.7183 83.5454 83.5211 81.3566 83.5211 76.0529V49.9553C83.5211 43.5571 82.338 38.6744 75.7465 38.6744C68.7324 38.6744 63.7465 44.5674 62.2253 51.639C61.5493 53.8278 61.2958 56.185 61.2958 58.7948V83.5454H47.0986V49.8711C47.0986 43.8097 46.169 38.5902 39.4085 38.5902C32.3099 38.5902 27.493 44.4832 25.7183 51.639C25.1268 53.8278 24.7887 56.185 24.7887 58.7106V83.5454H10.8451V41.5367Z" fill="#151F38"/>
<path d="M131.268 25.7939C148.592 25.7939 162.366 38.0851 162.366 55.3432C162.366 72.6855 148.592 84.8924 131.268 84.8924C114.028 84.8924 100.253 72.6855 100.253 55.3432C100.253 38.0851 114.028 25.7939 131.268 25.7939ZM131.268 72.938C140.479 72.938 148.169 65.8664 148.169 55.3432C148.169 44.9041 140.479 37.7483 131.268 37.7483C122.141 37.7483 114.451 44.9041 114.451 55.3432C114.451 65.8664 122.141 72.938 131.268 72.938Z" fill="#151F38"/>
<path d="M191.606 25.7939C203.944 25.7939 207.916 32.6972 207.916 32.6972H208.169C208.169 32.6972 208.085 31.266 208.085 29.4139V19.3958C208.085 17.7121 207.155 16.9544 205.634 16.9544H204.197V5H214.676C219.916 5 222.197 7.35721 222.197 12.4925V69.318C222.197 70.8334 223.127 71.7594 224.648 71.7594H226.761V83.5454H216.028C210.873 83.5454 209.014 81.104 209.014 77.8208C209.014 76.6422 209.014 75.7161 209.014 75.7161H208.761C208.761 75.7161 204.113 84.8924 191.099 84.8924C175.803 84.8924 165.916 72.8538 165.916 55.3432C165.831 37.4116 176.648 25.7939 191.606 25.7939ZM208.423 55.259C208.423 46.5036 203.859 37.9167 194.394 37.9167C186.62 37.9167 180.197 44.2306 180.197 55.4273C180.197 66.2031 185.859 73.1064 194.225 73.1064C201.493 73.0222 208.423 67.7185 208.423 55.259Z" fill="#151F38"/>
<path d="M237.746 94.9947C241.634 94.9947 245.099 92.6375 247.042 87.8389L248.901 83.5454L229.972 41.1158C229.296 39.432 228.535 39.0953 226.93 39.0953H225.239V27.1409H234.535C238.507 27.1409 240.535 28.5721 241.972 32.4446L253.042 60.6469C254.141 63.5092 255.07 65.9506 255.07 65.9506H255.324C255.324 65.9506 256.253 63.5092 257.183 60.6469L266.817 32.4446C268.169 28.5721 270.451 27.1409 274.338 27.1409H283.887L259.887 91.8799C255.915 102.066 246.62 106.865 238.169 106.865C229.296 106.865 223.803 101.14 223.803 101.14L229.211 91.2064C229.549 91.1222 233.014 94.9947 237.746 94.9947Z" fill="#151F38"/>
<path d="M309.239 25.7939C326.563 25.7939 340.338 38.0851 340.338 55.3432C340.338 72.6855 326.563 84.8924 309.239 84.8924C292 84.8924 278.225 72.6855 278.225 55.3432C278.225 38.0851 292 25.7939 309.239 25.7939ZM309.239 72.938C318.451 72.938 326.141 65.8664 326.141 55.3432C326.141 44.9041 318.451 37.7483 309.239 37.7483C300.113 37.7483 292.422 44.9041 292.422 55.3432C292.422 65.8664 300.113 72.938 309.239 72.938Z" fill="#151F38"/>
</svg>
